<svg id="Capa_1" data-name="Capa 1" xmlns="http://www.w3.org/2000/svg" viewBox="0 0 2514.36 1869.53"><defs><style>.cls-1{fill:#00a5b4;}.cls-2{fill:#009840;}.cls-3{fill:#3a3a38;}.cls-4{fill:#328789;}.cls-5{fill:#289c38;}</style></defs><title>fondoProvinciaMicrocreditos</title><path class="cls-1" d="M335.31,601.31v10.57a53.1,53.1,0,0,0,52.55,52.41h27.28a15.32,15.32,0,0,0,16-14.61c0-.4,0-.8,0-1.2V545.65a8.15,8.15,0,0,0-13.26-6.07l-77,49.58a12.09,12.09,0,0,0-5.59,12.15" transform="translate(624.58 -415.69)"/><path class="cls-2" d="M346.15,562.37l73.75-47.58c15.26-9.74,30.87-.42,30.87,15.05v57.25a10.08,10.08,0,0,0,9.59,10.55H474c45,0,83.42-32.45,83.42-87.7.07-58.49-44.81-94.26-97.37-94.26H350.29a15.19,15.19,0,0,0-14.84,15.06v126.3a6.9,6.9,0,0,0,7.24,6.55,7,7,0,0,0,3.6-1.23" transform="translate(624.58 -415.69)"/><path class="cls-3" d="M685.79,455.93q0,16.06-9.75,25.44t-29.58,9.39H626.19v34.83H604.73V420.8h41.73q19.81,0,29.58,9.3T685.79,455.93Zm-21.76,0q0-8.55-4.28-12.54t-14-4H626.19v32.88h19.52q9.62,0,14-4.2T664,455.93Z" transform="translate(624.58 -415.69)"/><path class="cls-3" d="M749.66,459.38a85,85,0,0,0-9-.45q-18.33,0-19.67,23.42v-.3l-.15,43.54H700.41V439h15.16l4.51,17.12a31.07,31.07,0,0,1,9.83-13.44,23.27,23.27,0,0,1,14.49-4.88,21.9,21.9,0,0,1,5.26.46Z" transform="translate(624.58 -415.69)"/><path class="cls-3" d="M757.94,482.05q0-21.17,10.29-32.73t31.15-11.56q20.72,0,31,11.64t10.28,32.65q0,21.32-10.28,33t-31,11.71q-20.57,0-31-11.71T757.94,482.05Zm61.56-.15q0-13.81-4.88-20.49t-15.24-6.69q-10.51,0-15.39,6.69t-4.87,20.49q0,27.93,20.26,27.93,10.36,0,15.24-6.91T819.5,481.9Z" transform="translate(624.58 -415.69)"/><path class="cls-3" d="M898.83,525.59h-23l-30-86.63H867l18.33,57.51q1.18,4.5,2.1,9.3,1.19-6.3,1.94-9.16L907.68,439h21.17Z" transform="translate(624.58 -415.69)"/><path class="cls-3" d="M961.17,415.69v15.47H940.76V415.69Zm0,23.27v86.63H940.76V439Z" transform="translate(624.58 -415.69)"/><path class="cls-3" d="M1060.29,468.24v57.35h-20.72V473.5q0-9.17-3.76-13.45t-11.71-4.27q-9,0-14,5.48t-5.77,16.29v48H983.86V439h15l3.91,15q7.5-16.22,28.07-16.22,14.12,0,21.77,7.73T1060.29,468.24Z" transform="translate(624.58 -415.69)"/><path class="cls-3" d="M1076.69,482.2q0-20.71,11-32.58t31.52-11.86a47.12,47.12,0,0,1,17,2.78,52.39,52.39,0,0,1,13.67,7.88l-8,16.82a31.17,31.17,0,0,0-9.84-7.51,27.72,27.72,0,0,0-11.79-2.4,20.7,20.7,0,0,0-16.13,6.91q-6.24,6.9-6.24,19.81a33,33,0,0,0,3.08,14.87,21.93,21.93,0,0,0,8.18,9.23,21.2,21.2,0,0,0,11.11,3.08,26.54,26.54,0,0,0,11.72-2.48,35.55,35.55,0,0,0,9.91-7.43l8,16.81A55.06,55.06,0,0,1,1136,524a46.43,46.43,0,0,1-16.82,2.78q-20.12,0-31.29-12T1076.69,482.2Z" transform="translate(624.58 -415.69)"/><path class="cls-3" d="M1184.09,415.69v15.47h-20.42V415.69Zm0,23.27v86.63h-20.42V439Z" transform="translate(624.58 -415.69)"/><path class="cls-3" d="M1274.94,470.94v54.65h-15l-3.76-15.46a27.08,27.08,0,0,1-10.8,12.31q-7.21,4.35-17.28,4.35-13.2,0-19.81-6.6t-6.6-17.57q0-11.42,7-17.34a39.76,39.76,0,0,1,17.57-8.18,274.15,274.15,0,0,1,28.52-4.06v-1.49q0-16.68-20-16.67a32.29,32.29,0,0,0-12.76,2.77,36.23,36.23,0,0,0-11.4,7.73l-9.16-15.61a56.2,56.2,0,0,1,35.12-11.85q19.53,0,28.83,8.33T1274.94,470.94Zm-20.12,22.22v-7.35q-11.41,1.2-17.79,2.47a26,26,0,0,0-10.44,4.28,9.86,9.86,0,0,0-4,8.41q0,9.9,11.86,9.91a21.89,21.89,0,0,0,13.82-4.66C1252.21,503.12,1254.43,498.77,1254.82,493.16Z" transform="translate(624.58 -415.69)"/><path class="cls-3" d="M710.42,663.11h-12V586.84q0-6.45.3-13.06l-35.43,89.33H651.87l-35.58-89.18c.29,6.91.45,11.31.45,13.21v76h-12V558h16.21l33.93,83.92a72.44,72.44,0,0,1,2.7,9.31c.21-.8.58-2.2,1.13-4.2a47.09,47.09,0,0,1,1.73-5.26L694.2,558h16.22Z" transform="translate(624.58 -415.69)"/><path class="cls-3" d="M749.83,553.51v13.22H738V553.51Zm0,23.42v86.18H738V576.93Z" transform="translate(624.58 -415.69)"/><path class="cls-3" d="M771.76,619.87q0-20.72,10.29-32.35t29.35-11.64A40.75,40.75,0,0,1,841,587.75l-6,9.75a33.48,33.48,0,0,0-10.43-8.33,28.68,28.68,0,0,0-12.84-2.77q-12.76,0-20.27,8.55t-7.5,24.77q0,11,3.67,18.62a25.47,25.47,0,0,0,24.1,15.31,28.55,28.55,0,0,0,12.84-2.78A33.34,33.34,0,0,0,835,642.54l6,9.76a41.4,41.4,0,0,1-29.57,11.86q-18.61,0-29.13-11.86T771.76,619.87Z" transform="translate(624.58 -415.69)"/><path class="cls-3" d="M900.48,588.35h-6.9q-10.07,0-16.29,6.75t-7.74,19.37l-.15,48.64H857.54V576.93h9l2.55,18.77a32,32,0,0,1,10.81-14.63,26.28,26.28,0,0,1,16.52-5.19,32.56,32.56,0,0,1,4.05.15Z" transform="translate(624.58 -415.69)"/><path class="cls-3" d="M910.27,619.72q0-21,9.53-32.43t28.75-11.41q19.23,0,28.75,11.49t9.54,32.35q0,21.16-9.54,32.73T948.55,664q-19.06,0-28.67-11.56T910.27,619.72Zm38.28-33.32q-26.13,0-26.12,33.17,0,15.91,6.53,24.92t19.59,9q26.13,0,26.12-33.93Q974.67,586.39,948.55,586.4Z" transform="translate(624.58 -415.69)"/><path class="cls-3" d="M1004.45,619.87q0-20.72,10.28-32.35t29.35-11.64a40.78,40.78,0,0,1,29.58,11.87l-6,9.75a33.4,33.4,0,0,0-10.44-8.33,28.63,28.63,0,0,0-12.83-2.77q-12.77,0-20.27,8.55t-7.51,24.77c0,7.31,1.24,13.51,3.68,18.62a25.49,25.49,0,0,0,24.1,15.31,28.5,28.5,0,0,0,12.83-2.78,33.26,33.26,0,0,0,10.44-8.33l6,9.76a41.44,41.44,0,0,1-29.58,11.86q-18.6,0-29.13-11.86T1004.45,619.87Z" transform="translate(624.58 -415.69)"/><path class="cls-3" d="M1133.15,588.35h-6.9c-6.72,0-12.14,2.24-16.3,6.75s-6.72,11-7.73,19.37l-.14,48.64h-11.87V576.93h9l2.55,18.77a32,32,0,0,1,10.81-14.63,26.28,26.28,0,0,1,16.51-5.19,32.65,32.65,0,0,1,4.06.15Z" transform="translate(624.58 -415.69)"/><path class="cls-3" d="M1155.25,625.13q2.25,28.38,28.23,28.37a34.83,34.83,0,0,0,14.56-3,31.68,31.68,0,0,0,11.11-8.26L1215,652a43.58,43.58,0,0,1-31.53,12q-20.58,0-30.56-11.41t-10-32.28q0-21,9.45-32.73t27.94-11.71q18.75,0,27.84,11.64t9.09,32.8v4.81Zm0-10.21H1205q-.9-14.26-6.84-21.4t-17.49-7.12q-11.4,0-17.86,7.27T1155.25,614.92Zm47.14-62.31-16.21,17.72h-9.77l10.37-17.72Z" transform="translate(624.58 -415.69)"/><path class="cls-3" d="M1310.08,663.11h-9l-2-17.11q-7.36,18.15-29,18.16-17.25,0-26.72-11.78T1234,619.87q0-20.57,9.45-32.2T1270.14,576q20.43,0,28.23,16.21V552h11.71Zm-11.71-43.24q0-16.51-6.53-24.92t-19.14-8.41q-12.77,0-19.67,8.49t-6.91,24.84q0,16.67,6.83,25.22t19.75,8.56c8.7,0,15.17-2.95,19.36-8.86S1298.37,630.58,1298.37,619.87Z" transform="translate(624.58 -415.69)"/><path class="cls-3" d="M1348.12,553.51v13.22h-11.87V553.51Zm0,23.42v86.18h-11.87V576.93Z" transform="translate(624.58 -415.69)"/><path class="cls-3" d="M1403.39,664.31q-11.42,0-17.41-4.95t-6-17.27l.3-54.65h-14V576.93h14.27l3.59-18.91h8v18.91h24.93v10.51h-24.93l-.15,52.4q0,8.25,2.92,11.19t9.39,2.92A29.12,29.12,0,0,0,1416,651.4l1.2,10.81A54,54,0,0,1,1403.39,664.31Z" transform="translate(624.58 -415.69)"/><path class="cls-3" d="M1427,619.72q0-21,9.52-32.43t28.75-11.41q19.21,0,28.75,11.49t9.54,32.35q0,21.16-9.54,32.73T1465.28,664q-19.07,0-28.67-11.56T1427,619.72Zm38.27-33.32q-26.12,0-26.12,33.17,0,15.91,6.54,24.92t19.58,9q26.13,0,26.13-33.93Q1491.41,586.39,1465.28,586.4Z" transform="translate(624.58 -415.69)"/><path class="cls-3" d="M1519.39,652.3l6-9.76q10.8,11.12,27.63,11.11,9.29,0,14.56-3.75a12.06,12.06,0,0,0,5.25-10.36,10.86,10.86,0,0,0-2.93-8,18.5,18.5,0,0,0-7.35-4.43,99.75,99.75,0,0,0-11.94-3,123.12,123.12,0,0,1-15.16-4.21,23.17,23.17,0,0,1-9.77-6.9q-4-4.82-4-13.37a20.37,20.37,0,0,1,4.35-13.2,26,26,0,0,1,11.33-8,42.55,42.55,0,0,1,15.1-2.62,51,51,0,0,1,18.08,3.07,44.69,44.69,0,0,1,13.59,7.73l-6,9.76a36.32,36.32,0,0,0-11.19-7.36,35.24,35.24,0,0,0-13.88-2.7c-5.52,0-10.11,1.1-13.82,3.3a11,11,0,0,0-5.56,10.06,9.66,9.66,0,0,0,2.86,7.28,18.35,18.35,0,0,0,7.06,4.21,100.81,100.81,0,0,0,11.56,2.93,103.37,103.37,0,0,1,15.38,4.2,24.4,24.4,0,0,1,10.13,7.21q4.21,5,4.21,13.51,0,12.16-8.33,18.69t-23.35,6.53a53.56,53.56,0,0,1-19.36-3.23A45.64,45.64,0,0,1,1519.39,652.3Z" transform="translate(624.58 -415.69)"/><path class="cls-4" d="M-37.53,2059.56c0-6.77-3.83-8.89-10-5.47-4.8,2.68-9.41,5.67-14.17,8.42q-31.86,18.39-63.74,36.73a15.22,15.22,0,0,0-1.67,1.12,1.64,1.64,0,0,0,.87,3c1.51.13,2.74-.81,4-1.52q38.11-22,76.21-44.1c4-2.3,4.83-1.86,4.86,2.7.06,7.16,0,14.32.11,21.48a2.64,2.64,0,0,0,0,.28,1.74,1.74,0,0,0,3.32.18,1.61,1.61,0,0,0,.1-.53C-37.45,2074.4-37.49,2067-37.53,2059.56Z" transform="translate(624.58 -415.69)"/><path class="cls-4" d="M-.3,2046c-.57-10.54-5.8-19.19-15.71-24.55-13.09-7.08-25.76-5.12-38.07,2q-30.47,17.64-60.9,35.32c-5.92,3.44-11.87,6.81-17.69,10.38a2.07,2.07,0,0,0-.74,1.18,1.66,1.66,0,0,0,1.52,2.13,2.46,2.46,0,0,0,1.06-.11,30.52,30.52,0,0,0,4.58-2.51c25.39-14.72,50.7-29.58,76.2-44.12,20.2-11.51,43.42-1.49,45.6,19.65,1,9.39.17,19,.17,28.45,0,7.94.52,15.89.7,23.83,0,0,0,.09,0,.14a1.74,1.74,0,0,0,3.42.18,4.26,4.26,0,0,0,.06-.5c.26-3.5.1-7,.09-10.54C0,2073.26.43,2059.59-.3,2046Z" transform="translate(624.58 -415.69)"/><path class="cls-5" d="M-36.76,2151.64a1.61,1.61,0,0,1-.1.53,1.74,1.74,0,0,1-3.32-.18,1.27,1.27,0,0,1,0-.28c-.15-7.15,0-14.32-.1-21.47,0-4.57-.89-5-4.86-2.71q-38.1,22-76.2,44.11a17.21,17.21,0,0,1-2.23,1.22,6.17,6.17,0,0,0,0-.87,6.74,6.74,0,0,0-.71-3.09q31.71-18.32,63.46-36.56c4.76-2.75,9.37-5.75,14.16-8.42,6.15-3.43,9.94-1.3,10,5.47C-36.62,2136.81-36.58,2144.23-36.76,2151.64Z" transform="translate(624.58 -415.69)"/><path class="cls-5" d="M0,2150.34c0,3.51.18,7-.08,10.54a4.26,4.26,0,0,1-.06.5,1.74,1.74,0,0,1-3.42-.18.66.66,0,0,1,0-.14c-.18-7.94-.7-15.88-.7-23.83,0-9.49.81-19.06-.16-28.45-2.19-21.14-25.41-31.16-45.61-19.65-25.5,14.55-50.81,29.4-76.2,44.12l-.7.42a6.38,6.38,0,0,0-1.61-3.6c4.5-2.66,9-5.26,13.57-7.88l60.91-35.33c12.31-7.12,25-9.08,38.07-2,9.92,5.36,15.14,14,15.7,24.55C.43,2123,0,2136.7,0,2150.34Z" transform="translate(624.58 -415.69)"/><path class="cls-5" d="M-158.77,2163.64c0-6.77-3.83-8.89-10-5.46-4.8,2.67-9.41,5.67-14.17,8.41q-31.84,18.39-63.74,36.73a16.79,16.79,0,0,0-1.67,1.12,1.64,1.64,0,0,0,.87,3c1.51.14,2.74-.81,4-1.52l76.2-44.1c4-2.3,4.83-1.86,4.86,2.7.06,7.16,0,14.32.11,21.48a2.64,2.64,0,0,0,0,.28,1.74,1.74,0,0,0,3.32.18,1.61,1.61,0,0,0,.1-.53C-158.69,2178.49-158.73,2171.06-158.77,2163.64Z" transform="translate(624.58 -415.69)"/><path class="cls-5" d="M-122.11,2184.6c0,3.52.18,7-.08,10.54a4.26,4.26,0,0,1-.06.5,1.74,1.74,0,0,1-3.43-.18v-.14c-.19-7.94-.71-15.88-.71-23.83,0-9.49.81-19-.17-28.45-2.18-21.14-25.4-31.16-45.6-19.64-25.5,14.54-50.8,29.39-76.2,44.11-.7.41-1.39.85-2.09,1.27a6.37,6.37,0,0,0-1.85-3.46c5-3,10.13-5.93,15.21-8.87q30.45-17.67,60.91-35.33c12.31-7.12,25-9.09,38.06-2,9.91,5.37,15.14,14,15.71,24.55C-121.68,2157.28-122.15,2171-122.11,2184.6Z" transform="translate(624.58 -415.69)"/><path class="cls-5" d="M-36.66,2205.52c0-6.77-3.83-8.9-10-5.47-4.8,2.67-9.41,5.67-14.17,8.41q-31.86,18.39-63.75,36.73a18.6,18.6,0,0,0-1.66,1.12,1.64,1.64,0,0,0,.86,3c1.52.14,2.75-.81,4-1.51l76.21-44.11c4-2.3,4.83-1.85,4.86,2.7.06,7.16,0,14.33.1,21.48l0,.28a1.74,1.74,0,0,0,3.32.19,1.71,1.71,0,0,0,.1-.54C-36.58,2220.36-36.62,2212.94-36.66,2205.52Z" transform="translate(624.58 -415.69)"/><path class="cls-5" d="M-.3,2185.54C-.87,2175-6.1,2166.36-16,2161c-13.09-7.08-25.76-5.12-38.07,2q-30.47,17.64-60.9,35.32c-5.92,3.43-11.87,6.8-17.69,10.37a2.1,2.1,0,0,0-.74,1.18,1.67,1.67,0,0,0,1.52,2.14,2.63,2.63,0,0,0,1.06-.12,30.52,30.52,0,0,0,4.58-2.51c25.39-14.71,50.7-29.57,76.2-44.11,20.2-11.52,43.42-1.5,45.6,19.64,1,9.4.17,19,.17,28.45,0,7.95.52,15.89.7,23.84,0,0,0,.08,0,.13a1.74,1.74,0,0,0,3.42.18,4.26,4.26,0,0,0,.06-.5c.26-3.5.1-7,.09-10.54C0,2212.82.43,2199.15-.3,2185.54Z" transform="translate(624.58 -415.69)"/><path class="cls-5" d="M-283.08,2196.4c0-6.77-3.84-8.89-10-5.47-4.8,2.68-9.41,5.67-14.16,8.42q-31.86,18.39-63.75,36.73a15.22,15.22,0,0,0-1.67,1.12,1.65,1.65,0,0,0,.87,3c1.52.13,2.74-.81,4-1.52q38.12-22,76.2-44.1c4-2.3,4.83-1.86,4.87,2.7.05,7.16,0,14.32.1,21.48a1.33,1.33,0,0,0,0,.28,1.74,1.74,0,0,0,3.32.18,1.9,1.9,0,0,0,.09-.53C-283,2211.24-283,2203.82-283.08,2196.4Z" transform="translate(624.58 -415.69)"/><path class="cls-5" d="M-246.43,2217.36c0,3.52.18,7-.08,10.54,0,.17,0,.33-.06.5a1.74,1.74,0,0,1-3.43-.18v-.14c-.19-7.94-.71-15.89-.71-23.83,0-9.49.81-19.05-.16-28.45-2.19-21.15-25.41-31.16-45.6-19.64-25.51,14.53-50.81,29.39-76.2,44.11-.94.54-1.85,1.14-2.8,1.67a4.43,4.43,0,0,0-2.17-3.24c5.35-3.26,10.81-6.35,16.23-9.49q30.45-17.67,60.91-35.33c12.31-7.13,25-9.09,38.06-2,9.92,5.36,15.14,14,15.71,24.55C-246,2190-246.47,2203.71-246.43,2217.36Z" transform="translate(624.58 -415.69)"/><path class="cls-4" d="M-405,2158.43c0-6.77-3.83-8.9-10-5.47-4.8,2.68-9.41,5.67-14.17,8.41q-31.86,18.39-63.75,36.73c-.56.33-1.1.71-1.66,1.12a1.64,1.64,0,0,0,.86,3c1.52.14,2.75-.81,4-1.51q38.12-22,76.21-44.11c4-2.3,4.83-1.85,4.86,2.71.06,7.15,0,14.32.1,21.47l0,.29a1.74,1.74,0,0,0,3.32.18,1.71,1.71,0,0,0,.1-.53C-404.94,2173.27-405,2165.85-405,2158.43Z" transform="translate(624.58 -415.69)"/><path class="cls-4" d="M-368.36,2179.38c0,3.51.18,7-.09,10.54a2.84,2.84,0,0,1-.06.5,1.74,1.74,0,0,1-3.42-.18v-.14c-.19-7.94-.71-15.88-.71-23.83,0-9.49.81-19.06-.17-28.44-2.19-21.15-25.4-31.17-45.6-19.66-25.5,14.55-50.8,29.41-76.2,44.12a.53.53,0,0,1-.1.06,7.58,7.58,0,0,0-1.88-3.42c4.39-2.61,8.82-5.13,13.25-7.7q30.45-17.67,60.91-35.33c12.31-7.12,25-9.08,38.06-2,9.91,5.37,15.14,14,15.71,24.55C-367.93,2152.06-368.4,2165.74-368.36,2179.38Z" transform="translate(624.58 -415.69)"/><path class="cls-5" d="M-527.75,2192.38c0-6.77-3.84-8.9-10-5.47-4.8,2.67-9.4,5.67-14.16,8.41q-31.86,18.39-63.75,36.73a18.73,18.73,0,0,0-1.67,1.12,1.65,1.65,0,0,0,.87,3c1.52.14,2.74-.81,4-1.51l76.21-44.11c4-2.3,4.82-1.86,4.86,2.7,0,7.16-.05,14.32.1,21.48a1.27,1.27,0,0,0,0,.28,1.74,1.74,0,0,0,3.32.19,1.7,1.7,0,0,0,.09-.54C-527.68,2207.22-527.72,2199.8-527.75,2192.38Z" transform="translate(624.58 -415.69)"/><path class="cls-5" d="M-491.4,2172.4c-.57-10.54-5.79-19.18-15.71-24.55-13.08-7.08-25.75-5.12-38.06,2q-30.47,17.64-60.91,35.32c-5.91,3.43-11.87,6.8-17.69,10.37a2,2,0,0,0-.73,1.18,1.67,1.67,0,0,0,1.52,2.14,2.63,2.63,0,0,0,1.06-.12,30.52,30.52,0,0,0,4.58-2.51c25.39-14.71,50.69-29.57,76.2-44.11,20.19-11.52,43.41-1.5,45.6,19.64,1,9.4.16,19,.16,28.45,0,8,.52,15.89.71,23.84v.13a1.74,1.74,0,0,0,3.43.18,4.26,4.26,0,0,0,.06-.5c.26-3.5.09-7,.08-10.54C-491.14,2199.68-490.67,2186-491.4,2172.4Z" transform="translate(624.58 -415.69)"/><path class="cls-4" d="M-407.79,2233.52c0-6.77-3.83-8.89-10-5.46-4.8,2.67-9.4,5.67-14.16,8.41q-31.86,18.39-63.75,36.73a16.79,16.79,0,0,0-1.67,1.12,1.65,1.65,0,0,0,.87,3c1.52.14,2.75-.81,4-1.52q38.11-22,76.21-44.1c4-2.3,4.82-1.86,4.86,2.7.05,7.16-.05,14.32.1,21.48a1.33,1.33,0,0,0,0,.28,1.74,1.74,0,0,0,3.32.18,1.91,1.91,0,0,0,.1-.53C-407.72,2248.37-407.75,2240.94-407.79,2233.52Z" transform="translate(624.58 -415.69)"/><path class="cls-4" d="M-371.44,2213.55c-.56-10.54-5.79-19.19-15.7-24.55-13.09-7.08-25.76-5.12-38.07,2q-30.46,17.64-60.91,35.33c-5.91,3.43-11.87,6.8-17.69,10.37a2,2,0,0,0-.73,1.18A1.67,1.67,0,0,0-503,2240a2.63,2.63,0,0,0,1.06-.12,30.52,30.52,0,0,0,4.58-2.51c25.39-14.72,50.7-29.57,76.2-44.11,20.19-11.52,43.41-1.5,45.6,19.64,1,9.4.17,19,.17,28.45,0,7.94.52,15.89.7,23.83a.66.66,0,0,0,0,.14,1.74,1.74,0,0,0,3.42.18,4.26,4.26,0,0,0,.06-.5c.26-3.5.09-7,.08-10.54C-371.18,2240.83-370.7,2227.16-371.44,2213.55Z" transform="translate(624.58 -415.69)"/><path class="cls-4" d="M-162.7,2241.45c0-6.77-3.84-8.9-10-5.47-4.8,2.68-9.41,5.67-14.16,8.42q-31.86,18.38-63.75,36.72a18.73,18.73,0,0,0-1.67,1.12,1.65,1.65,0,0,0,.87,3c1.51.14,2.74-.8,4-1.51q38.11-22,76.2-44.11c4-2.3,4.83-1.85,4.86,2.71.06,7.16,0,14.32.11,21.47a2.83,2.83,0,0,0,0,.29,1.75,1.75,0,0,0,3.33.18,2,2,0,0,0,.09-.53C-162.63,2256.29-162.67,2248.87-162.7,2241.45Z" transform="translate(624.58 -415.69)"/><path class="cls-4" d="M-126.35,2221.47c-.57-10.54-5.79-19.18-15.71-24.55-13.08-7.08-25.75-5.12-38.06,2q-30.47,17.64-60.91,35.32c-5.92,3.43-11.87,6.8-17.69,10.37a2,2,0,0,0-.73,1.19,1.66,1.66,0,0,0,1.51,2.13,2.82,2.82,0,0,0,1.06-.11,32,32,0,0,0,4.59-2.51c25.39-14.72,50.69-29.58,76.19-44.12,20.2-11.52,43.42-1.5,45.61,19.64,1,9.4.16,19,.16,28.45,0,7.95.52,15.9.71,23.84v.13a1.74,1.74,0,0,0,3.42.18,4.13,4.13,0,0,0,.07-.49c.25-3.5.09-7,.08-10.55C-126.09,2248.76-125.62,2235.09-126.35,2221.47Z" transform="translate(624.58 -415.69)"/><path class="cls-4" d="M1832.79,764.46c0-10.25-5.8-13.47-15.11-8.28-7.27,4.05-14.24,8.59-21.45,12.74q-48.26,27.86-96.55,55.63a27,27,0,0,0-2.52,1.69,2.49,2.49,0,0,0,1.31,4.5c2.3.21,4.16-1.22,6-2.29q57.74-33.37,115.42-66.8c6-3.48,7.31-2.81,7.36,4.09.08,10.85-.07,21.69.16,32.53a2,2,0,0,0,0,.43c.42,2.51,4.23,2.7,5,.28a2.56,2.56,0,0,0,.14-.81C1832.9,786.94,1832.85,775.7,1832.79,764.46Z" transform="translate(624.58 -415.69)"/><path class="cls-4" d="M1889.16,743.89c-.85-16-8.77-29.06-23.79-37.18-19.81-10.73-39-7.76-57.64,3q-46.15,26.71-92.25,53.5c-9,5.19-18,10.3-26.79,15.71a3.13,3.13,0,0,0-1.11,1.79,2.53,2.53,0,0,0,2.3,3.23,3.82,3.82,0,0,0,1.6-.17,47.8,47.8,0,0,0,6.94-3.8c38.46-22.29,76.78-44.8,115.4-66.82,30.59-17.44,65.76-2.26,69.07,29.75,1.47,14.23.25,28.72.25,43.09,0,12,.79,24.07,1.07,36.1a1.34,1.34,0,0,0,0,.2c.19,2.92,4.66,3.16,5.18.27a6.39,6.39,0,0,0,.09-.75c.39-5.3.14-10.64.13-16C1889.56,785.21,1890.27,764.5,1889.16,743.89Z" transform="translate(624.58 -415.69)"/><path class="cls-5" d="M1834,903.92a2.46,2.46,0,0,1-.15.8c-.79,2.43-4.6,2.24-5-.27a1.58,1.58,0,0,1,0-.43c-.22-10.84-.08-21.69-.16-32.52,0-6.91-1.34-7.58-7.36-4.1q-57.69,33.39-115.41,66.8a26.19,26.19,0,0,1-3.37,1.85,9.55,9.55,0,0,0,.08-1.32,10.07,10.07,0,0,0-1.08-4.68q48-27.74,96.11-55.37c7.21-4.17,14.19-8.7,21.45-12.75,9.31-5.2,15.06-2,15.12,8.28C1834.16,881.45,1834.22,892.68,1834,903.92Z" transform="translate(624.58 -415.69)"/><path class="cls-5" d="M1889.61,901.94c0,5.33.27,10.68-.12,16a6.39,6.39,0,0,1-.09.75c-.52,2.88-5,2.66-5.18-.27a1.48,1.48,0,0,1,0-.21c-.28-12-1.07-24.06-1.07-36.09,0-14.37,1.22-28.86-.25-43.09-3.31-32-38.48-47.18-69.07-29.75-38.62,22-76.94,44.52-115.4,66.82-.35.2-.7.42-1.05.63a9.72,9.72,0,0,0-2.45-5.45c6.81-4,13.71-8,20.56-12q46.11-26.74,92.25-53.49c18.64-10.79,37.82-13.76,57.64-3,15,8.12,22.93,21.21,23.79,37.18C1890.27,860.57,1889.56,881.28,1889.61,901.94Z" transform="translate(624.58 -415.69)"/><path class="cls-5" d="M1649.17,922.09c-.05-10.25-5.8-13.47-15.11-8.28-7.26,4.05-14.24,8.59-21.45,12.75q-48.24,27.84-96.54,55.62a27.16,27.16,0,0,0-2.53,1.69,2.49,2.49,0,0,0,1.32,4.5c2.29.21,4.15-1.22,6-2.29q57.72-33.37,115.41-66.8c6-3.48,7.31-2.81,7.36,4.1.09,10.84-.06,21.68.16,32.52a3,3,0,0,0,0,.43c.43,2.51,4.24,2.7,5,.28a2.89,2.89,0,0,0,.15-.81C1649.29,944.57,1649.23,933.33,1649.17,922.09Z" transform="translate(624.58 -415.69)"/><path class="cls-5" d="M1704.68,953.83c0,5.32.28,10.66-.12,16a6.39,6.39,0,0,1-.09.75c-.52,2.88-5,2.64-5.18-.28a1.27,1.27,0,0,1,0-.2c-.29-12-1.08-24.06-1.08-36.1,0-14.36,1.24-28.85-.25-43.08-3.3-32-38.47-47.2-69.06-29.75-38.62,22-76.94,44.52-115.4,66.8-1.06.63-2.11,1.29-3.17,1.93a9.67,9.67,0,0,0-2.8-5.24c7.61-4.59,15.33-9,23-13.44q46.11-26.76,92.25-53.49c18.64-10.8,37.82-13.77,57.64-3.05,15,8.14,22.93,21.22,23.79,37.2C1705.34,912.46,1704.63,933.16,1704.68,953.83Z" transform="translate(624.58 -415.69)"/><path class="cls-5" d="M1834.11,985.51c-.06-10.26-5.81-13.47-15.11-8.28-7.27,4-14.25,8.58-21.45,12.74q-48.25,27.85-96.55,55.62a25.91,25.91,0,0,0-2.52,1.7,2.49,2.49,0,0,0,1.31,4.5c2.3.21,4.15-1.22,6-2.3q57.72-33.37,115.41-66.79c6-3.48,7.31-2.81,7.37,4.09.08,10.84-.07,21.69.15,32.53a3.28,3.28,0,0,0,0,.43c.43,2.51,4.24,2.7,5,.27a2.82,2.82,0,0,0,.15-.8C1834.22,1008,1834.16,996.74,1834.11,985.51Z" transform="translate(624.58 -415.69)"/><path class="cls-5" d="M1889.16,955.26c-.85-16-8.77-29.06-23.79-37.19-19.81-10.72-39-7.75-57.64,3q-46.15,26.71-92.25,53.49c-9,5.2-18,10.3-26.79,15.72a3.1,3.1,0,0,0-1.11,1.79,2.53,2.53,0,0,0,2.3,3.23,3.82,3.82,0,0,0,1.6-.17,46.93,46.93,0,0,0,6.94-3.81c38.46-22.29,76.78-44.79,115.4-66.81,30.59-17.44,65.76-2.27,69.07,29.75,1.47,14.23.25,28.72.25,43.09,0,12,.79,24.07,1.07,36.09a1.48,1.48,0,0,0,0,.21c.19,2.92,4.66,3.15,5.18.27a6.39,6.39,0,0,0,.09-.75c.39-5.3.14-10.64.13-16C1889.56,996.58,1890.27,975.87,1889.16,955.26Z" transform="translate(624.58 -415.69)"/><path class="cls-5" d="M1460.89,971.7c-.05-10.25-5.8-13.47-15.11-8.28-7.26,4.06-14.24,8.59-21.44,12.75q-48.25,27.84-96.55,55.62a25.91,25.91,0,0,0-2.52,1.7,2.48,2.48,0,0,0,1.31,4.49c2.3.21,4.15-1.22,6-2.29q57.72-33.37,115.41-66.8c6-3.48,7.31-2.81,7.37,4.1.08,10.84-.07,21.69.15,32.53a3,3,0,0,0,0,.42c.43,2.51,4.24,2.7,5,.28a2.89,2.89,0,0,0,.15-.81C1461,994.18,1461,982.94,1460.89,971.7Z" transform="translate(624.58 -415.69)"/><path class="cls-5" d="M1516.41,1003.44c0,5.33.27,10.67-.13,16a6.31,6.31,0,0,1-.09.76c-.52,2.88-5,2.65-5.19-.27v-.21c-.28-12-1.07-24.07-1.07-36.09,0-14.38,1.22-28.86-.25-43.09-3.32-32-38.48-47.19-69.06-29.75-38.63,22-76.95,44.52-115.41,66.81-1.41.82-2.79,1.73-4.23,2.53a6.76,6.76,0,0,0-3.29-4.91c8.11-4.93,16.37-9.61,24.58-14.37q46.13-26.76,92.25-53.5c18.64-10.8,37.83-13.77,57.65-3,15,8.12,22.92,21.22,23.78,37.18C1517.06,962.07,1516.35,982.77,1516.41,1003.44Z" transform="translate(624.58 -415.69)"/><path class="cls-4" d="M1276.23,914.19c-.06-10.25-5.81-13.47-15.11-8.28-7.27,4.05-14.25,8.59-21.45,12.74q-48.26,27.86-96.55,55.63a25.78,25.78,0,0,0-2.52,1.69,2.49,2.49,0,0,0,1.31,4.5c2.3.21,4.16-1.22,6-2.29q57.72-33.37,115.42-66.8c6-3.48,7.31-2.81,7.36,4.09.08,10.85-.07,21.69.15,32.53,0,.15,0,.29,0,.43.43,2.51,4.24,2.7,5,.28a2.87,2.87,0,0,0,.14-.81C1276.34,936.67,1276.28,925.43,1276.23,914.19Z" transform="translate(624.58 -415.69)"/><path class="cls-4" d="M1331.74,945.93c0,5.32.27,10.67-.13,16a5.07,5.07,0,0,1-.09.76c-.52,2.87-5,2.65-5.18-.28a1.48,1.48,0,0,1,0-.21c-.28-12-1.07-24.06-1.07-36.09,0-14.37,1.23-28.86-.25-43.08-3.32-32-38.47-47.19-69.06-29.76-38.62,22-77,44.53-115.41,66.82a1.1,1.1,0,0,0-.14.09,11.6,11.6,0,0,0-2.87-5.19c6.65-4,13.37-7.77,20.07-11.67q46.13-26.73,92.25-53.49c18.64-10.79,37.83-13.76,57.65-3,15,8.12,22.93,21.22,23.79,37.18C1332.39,904.55,1331.68,925.26,1331.74,945.93Z" transform="translate(624.58 -415.69)"/><path class="cls-5" d="M1090.34,965.61c0-10.26-5.8-13.47-15.11-8.28-7.26,4-14.24,8.58-21.44,12.74q-48.25,27.84-96.55,55.62a27.31,27.31,0,0,0-2.53,1.7,2.5,2.5,0,0,0,1.32,4.5c2.3.2,4.15-1.23,6-2.3q57.72-33.37,115.41-66.79c6-3.49,7.31-2.81,7.37,4.09.08,10.84-.07,21.69.15,32.53a3.28,3.28,0,0,0,0,.43c.43,2.5,4.24,2.7,5,.27a2.82,2.82,0,0,0,.15-.8C1090.46,988.08,1090.4,976.84,1090.34,965.61Z" transform="translate(624.58 -415.69)"/><path class="cls-5" d="M1145.4,935.36c-.86-16-8.77-29.06-23.79-37.19-19.81-10.72-39-7.76-57.65,3q-46.14,26.71-92.24,53.49c-9,5.2-18,10.3-26.79,15.72a3.05,3.05,0,0,0-1.11,1.78,2.53,2.53,0,0,0,2.3,3.24,3.66,3.66,0,0,0,1.6-.18,46,46,0,0,0,6.94-3.8c38.46-22.29,76.78-44.79,115.4-66.81,30.59-17.44,65.76-2.27,69.07,29.75,1.47,14.23.25,28.72.25,43.09,0,12,.79,24.07,1.07,36.09v.21c.2,2.92,4.67,3.15,5.19.27q.06-.37.09-.75c.39-5.3.14-10.64.13-16C1145.8,976.67,1146.51,956,1145.4,935.36Z" transform="translate(624.58 -415.69)"/><path class="cls-4" d="M1272,1027.93c-.06-10.26-5.81-13.47-15.11-8.29-7.27,4.06-14.25,8.59-21.45,12.75q-48.26,27.84-96.55,55.62a25.91,25.91,0,0,0-2.52,1.7,2.49,2.49,0,0,0,1.31,4.49c2.3.21,4.16-1.22,6-2.29q57.72-33.37,115.42-66.79c6-3.49,7.31-2.82,7.36,4.09.08,10.84-.07,21.69.15,32.53a3,3,0,0,0,0,.42c.42,2.51,4.23,2.71,5,.28a2.87,2.87,0,0,0,.14-.81C1272.14,1050.4,1272.08,1039.16,1272,1027.93Z" transform="translate(624.58 -415.69)"/><path class="cls-4" d="M1327.09,997.68c-.86-16-8.78-29.06-23.79-37.19-19.82-10.72-39-7.76-57.65,3q-46.14,26.72-92.25,53.49c-9,5.2-18,10.3-26.79,15.71a3.16,3.16,0,0,0-1.11,1.79,2.52,2.52,0,0,0,2.3,3.23,3.71,3.71,0,0,0,1.61-.17,46.35,46.35,0,0,0,6.93-3.8c38.46-22.29,76.78-44.79,115.41-66.81,30.58-17.44,65.75-2.27,69.06,29.75,1.47,14.23.25,28.72.25,43.09,0,12,.79,24.07,1.07,36.09a1.48,1.48,0,0,0,0,.21c.19,2.92,4.66,3.15,5.18.27,0-.25.08-.5.1-.75.39-5.3.14-10.65.12-16C1327.48,1039,1328.19,1018.29,1327.09,997.68Z" transform="translate(624.58 -415.69)"/><path class="cls-4" d="M1643.21,1039.92c0-10.25-5.81-13.46-15.11-8.28-7.27,4.06-14.25,8.59-21.45,12.75q-48.26,27.84-96.55,55.62a25.91,25.91,0,0,0-2.52,1.7,2.49,2.49,0,0,0,1.31,4.49c2.3.21,4.16-1.22,6-2.29q57.72-33.37,115.42-66.79c6-3.49,7.31-2.82,7.36,4.09.08,10.84-.07,21.69.15,32.53a3,3,0,0,0,.05.42c.42,2.51,4.23,2.71,5,.28a2.87,2.87,0,0,0,.14-.81C1643.32,1062.4,1643.27,1051.16,1643.21,1039.92Z" transform="translate(624.58 -415.69)"/><path class="cls-4" d="M1698.27,1009.68c-.86-16-8.78-29.06-23.79-37.19-19.82-10.72-39-7.76-57.65,3q-46.14,26.72-92.25,53.49c-8.95,5.2-18,10.3-26.79,15.71a3.16,3.16,0,0,0-1.11,1.79,2.52,2.52,0,0,0,2.3,3.23,3.87,3.87,0,0,0,1.61-.17,46.35,46.35,0,0,0,6.93-3.8C1546,1023.49,1584.3,1001,1622.93,979c30.58-17.44,65.75-2.27,69.06,29.75,1.48,14.23.25,28.72.25,43.09,0,12,.79,24.07,1.07,36.09a1.48,1.48,0,0,0,0,.21c.19,2.92,4.66,3.15,5.18.27a6.42,6.42,0,0,0,.1-.75c.39-5.3.14-10.65.12-16C1698.66,1051,1699.37,1030.29,1698.27,1009.68Z" transform="translate(624.58 -415.69)"/></svg>