<svg xmlns="http://www.w3.org/2000/svg" viewBox="0 0 533.11 108.45"><defs><style>.cls-1{fill:#fff;}</style></defs><title>logo blanco_1</title><g id="Capa_2" data-name="Capa 2"><g id="Capa_1-2" data-name="Capa 1"><path class="cls-1" d="M175.78,17q0,6.77-4.11,10.72t-12.46,3.95h-8.54V46.3h-9V2.15h17.58q8.35,0,12.46,3.92T175.78,17Zm-9.17,0q0-3.6-1.8-5.28c-1.2-1.12-3.18-1.68-5.92-1.68h-8.22V23.84h8.22q4.05,0,5.89-1.77A6.79,6.79,0,0,0,166.61,17Z"/><path class="cls-1" d="M202.66,18.41a34.87,34.87,0,0,0-3.8-.19q-7.71,0-8.28,9.86V28l-.07,18.34h-8.6V9.8h6.39L190.2,17a13.13,13.13,0,0,1,4.14-5.66,9.78,9.78,0,0,1,6.1-2,9.11,9.11,0,0,1,2.22.19Z"/><path class="cls-1" d="M206.13,28q0-8.92,4.34-13.79T223.59,9.3q8.73,0,13.06,4.9T241,28q0,9-4.33,13.91T223.59,46.8q-8.67,0-13.06-4.93T206.13,28Zm25.94-.07c0-3.88-.69-6.75-2.06-8.63s-3.51-2.82-6.42-2.82-5.11.94-6.48,2.82-2.06,4.75-2.06,8.63q0,11.76,8.54,11.77,4.36,0,6.42-2.91T232.07,27.89Z"/><path class="cls-1" d="M265.46,46.3h-9.68L243.13,9.8h8.92L259.76,34c.34,1.26.64,2.57.89,3.92.34-1.77.61-3.06.82-3.86L269.19,9.8h8.92Z"/><path class="cls-1" d="M291.7,0V6.51h-8.6V0Zm0,9.8V46.3h-8.6V9.8Z"/><path class="cls-1" d="M333.44,22.14V46.3h-8.73V24.35c0-2.57-.52-4.46-1.58-5.66a6.23,6.23,0,0,0-4.93-1.8,7.65,7.65,0,0,0-5.92,2.31q-2.11,2.3-2.43,6.86V46.3h-8.6V9.8h6.32l1.65,6.33Q312.39,9.29,321,9.3q6,0,9.17,3.25T333.44,22.14Z"/><path class="cls-1" d="M340.33,28q0-8.73,4.62-13.73t13.28-5a19.88,19.88,0,0,1,7.15,1.17,21.84,21.84,0,0,1,5.75,3.32l-3.35,7.08a13.22,13.22,0,0,0-4.14-3.16,11.62,11.62,0,0,0-5-1,8.74,8.74,0,0,0-6.8,2.91q-2.62,2.91-2.62,8.35a13.82,13.82,0,0,0,1.3,6.26A9.19,9.19,0,0,0,354,38.11a9,9,0,0,0,4.68,1.29,11.28,11.28,0,0,0,4.94-1,15.18,15.18,0,0,0,4.17-3.13l3.35,7.08a22.71,22.71,0,0,1-5.82,3.32,19.6,19.6,0,0,1-7.08,1.17q-8.48,0-13.19-5.06T340.33,28Z"/><path class="cls-1" d="M385.55,0V6.51H377V0Zm0,9.8V46.3H377V9.8Z"/><path class="cls-1" d="M423.81,23.27v23h-6.32l-1.58-6.52A11.38,11.38,0,0,1,411.35,45a13.82,13.82,0,0,1-7.27,1.83c-3.71,0-6.5-.93-8.35-2.78a10,10,0,0,1-2.78-7.4c0-3.21,1-5.64,3-7.31a16.75,16.75,0,0,1,7.4-3.44,116.26,116.26,0,0,1,12-1.71v-.63q0-7-8.42-7a13.49,13.49,0,0,0-5.37,1.17,15.31,15.31,0,0,0-4.81,3.25l-3.86-6.57a23.64,23.64,0,0,1,14.8-5q8.22,0,12.15,3.51T423.81,23.27Zm-8.47,9.37v-3.1q-4.81.5-7.5,1a10.89,10.89,0,0,0-4.39,1.8,4.17,4.17,0,0,0-1.71,3.54q0,4.19,5,4.18a9.2,9.2,0,0,0,5.82-2A7.26,7.26,0,0,0,415.34,32.64Z"/><path class="cls-1" d="M185.25,108h-4.78V77.62c0-1.71,0-3.44.12-5.2L166.49,108H162l-14.16-35.5c.12,2.75.18,4.5.18,5.26V108h-4.79V66.15h6.46l13.5,33.4a28.62,28.62,0,0,1,1.08,3.71q.12-.48.45-1.68a20.64,20.64,0,0,1,.68-2.09L178.8,66.15h6.45Z"/><path class="cls-1" d="M200.91,64.36v5.25h-4.72V64.36Zm0,9.32V108h-4.72V73.68Z"/><path class="cls-1" d="M209.64,90.77q0-8.25,4.09-12.88t11.68-4.63A16.21,16.21,0,0,1,237.18,78l-2.39,3.88a13.24,13.24,0,0,0-4.15-3.31,11.36,11.36,0,0,0-5.11-1.11,10.22,10.22,0,0,0-8.07,3.41q-3,3.41-3,9.86a17,17,0,0,0,1.46,7.41,10.11,10.11,0,0,0,9.59,6.09,11.49,11.49,0,0,0,5.11-1.1,13.42,13.42,0,0,0,4.15-3.32l2.39,3.88a16.48,16.48,0,0,1-11.77,4.73q-7.41,0-11.59-4.73C211,100.53,209.64,96.22,209.64,90.77Z"/><path class="cls-1" d="M260.85,78.22H258.1a8.37,8.37,0,0,0-6.48,2.69,13.37,13.37,0,0,0-3.08,7.71L248.48,108h-4.72V73.68h3.58l1,7.47a12.8,12.8,0,0,1,4.3-5.83,10.51,10.51,0,0,1,6.58-2.06,12.93,12.93,0,0,1,1.61.06Z"/><path class="cls-1" d="M264.74,90.71q0-8.37,3.79-12.91T280,73.26q7.65,0,11.45,4.57t3.79,12.88c0,5.61-1.26,10-3.79,13s-6.35,4.61-11.45,4.61-8.86-1.54-11.41-4.61S264.74,96.32,264.74,90.71ZM280,77.44q-10.39,0-10.39,13.21,0,6.33,2.59,9.92t7.8,3.58q10.39,0,10.4-13.5Q290.37,77.44,280,77.44Z"/><path class="cls-1" d="M302.2,90.77q0-8.25,4.1-12.88T318,73.26A16.22,16.22,0,0,1,329.75,78l-2.39,3.88a13.24,13.24,0,0,0-4.15-3.31,11.39,11.39,0,0,0-5.11-1.11A10.19,10.19,0,0,0,310,80.85q-3,3.41-3,9.86a17,17,0,0,0,1.47,7.41,10.54,10.54,0,0,0,3.94,4.57,10.65,10.65,0,0,0,5.65,1.52,11.52,11.52,0,0,0,5.11-1.1,13.42,13.42,0,0,0,4.15-3.32l2.39,3.88A16.5,16.5,0,0,1,318,108.4q-7.41,0-11.59-4.73C303.6,100.53,302.2,96.22,302.2,90.77Z"/><path class="cls-1" d="M353.42,78.22h-2.75a8.41,8.41,0,0,0-6.49,2.69,13.43,13.43,0,0,0-3.07,7.71L341.05,108h-4.72V73.68h3.58l1,7.47a12.73,12.73,0,0,1,4.3-5.83,10.48,10.48,0,0,1,6.57-2.06,13,13,0,0,1,1.62.06Z"/><path class="cls-1" d="M362.2,92.86q.9,11.3,11.24,11.29a13.91,13.91,0,0,0,5.79-1.19,12.47,12.47,0,0,0,4.42-3.29l2.33,3.88a17.33,17.33,0,0,1-12.54,4.79q-8.19,0-12.16-4.55c-2.65-3-4-7.31-4-12.84s1.26-9.92,3.77-13,6.21-4.66,11.11-4.66,8.68,1.54,11.09,4.63,3.61,7.44,3.61,13.06v1.91Zm0-4.06H382c-.24-3.79-1.14-6.63-2.72-8.52s-3.89-2.84-7-2.84a9,9,0,0,0-7.11,2.9Q362.63,83.23,362.2,88.8ZM381,64l-6.46,7h-3.88l4.12-7Z"/><path class="cls-1" d="M423.81,108h-3.58l-.78-6.82q-2.93,7.23-11.53,7.24-6.87,0-10.64-4.7c-2.51-3.12-3.76-7.44-3.76-12.93S394.77,81,397.28,78s6.06-4.63,10.64-4.63q8.11,0,11.23,6.45v-16h4.66Zm-4.66-17.21q0-6.58-2.6-9.92t-7.62-3.35a9.54,9.54,0,0,0-7.83,3.38q-2.75,3.38-2.74,9.89t2.71,10q2.73,3.41,7.86,3.4t7.71-3.52Q419.15,97.17,419.15,90.77Z"/><path class="cls-1" d="M438.93,64.36v5.25h-4.72V64.36Zm0,9.32V108h-4.72V73.68Z"/><path class="cls-1" d="M460.92,108.45c-3,0-5.34-.65-6.93-2s-2.39-3.6-2.39-6.87l.12-21.75h-5.56V73.68h5.68l1.43-7.53h3.17v7.53h9.92v4.18h-9.92l-.06,20.85c0,2.2.39,3.68,1.17,4.46a5.13,5.13,0,0,0,3.73,1.16,11.69,11.69,0,0,0,4.66-1l.48,4.3A21.3,21.3,0,0,1,460.92,108.45Z"/><path class="cls-1" d="M470.31,90.71q0-8.37,3.79-12.91t11.44-4.54q7.65,0,11.45,4.57t3.79,12.88c0,5.61-1.26,10-3.79,13s-6.35,4.61-11.45,4.61-8.86-1.54-11.41-4.61S470.31,96.32,470.31,90.71Zm15.23-13.27q-10.4,0-10.39,13.21,0,6.33,2.59,9.92t7.8,3.58q10.4,0,10.4-13.5Q495.94,77.44,485.54,77.44Z"/><path class="cls-1" d="M507.06,103.67l2.39-3.88a14.66,14.66,0,0,0,11,4.42,9.9,9.9,0,0,0,5.8-1.49,4.8,4.8,0,0,0,2.09-4.12,4.3,4.3,0,0,0-1.17-3.2,7.26,7.26,0,0,0-2.92-1.76,39.78,39.78,0,0,0-4.75-1.2,48.52,48.52,0,0,1-6-1.67A9.2,9.2,0,0,1,509.57,88,8,8,0,0,1,508,82.7a8.11,8.11,0,0,1,1.74-5.26,10.37,10.37,0,0,1,4.51-3.2,17,17,0,0,1,6-1,20.45,20.45,0,0,1,7.2,1.22,18,18,0,0,1,5.41,3.08l-2.39,3.89A14.17,14.17,0,0,0,526,78.46a14,14,0,0,0-5.53-1.08,10.59,10.59,0,0,0-5.5,1.32,4.34,4.34,0,0,0-2.21,4,3.86,3.86,0,0,0,1.14,2.9,7.31,7.31,0,0,0,2.81,1.67,39.38,39.38,0,0,0,4.6,1.17,39.76,39.76,0,0,1,6.12,1.67,9.75,9.75,0,0,1,4,2.87,8.06,8.06,0,0,1,1.67,5.38,8.92,8.92,0,0,1-3.32,7.44c-2.21,1.73-5.3,2.6-9.29,2.6a21.34,21.34,0,0,1-7.71-1.29A18.15,18.15,0,0,1,507.06,103.67Z"/><path class="cls-1" d="M.06,81v4.61A23.18,23.18,0,0,0,23,108.45h11.9a6.69,6.69,0,0,0,7-6.38c0-.17,0-.35,0-.52V56.69A3.56,3.56,0,0,0,36.09,54L2.5,75.67A5.3,5.3,0,0,0,.06,81"/><path class="cls-1" d="M4.79,64,37,43.23c6.65-4.25,13.46-.18,13.46,6.57v25a4.4,4.4,0,0,0,4.18,4.6h5.94c19.61,0,36.39-14.16,36.39-38.26C97,15.6,77.39,0,54.47,0H6.6A6.64,6.64,0,0,0,.12,6.57V61.66a3,3,0,0,0,3.17,2.86A2.93,2.93,0,0,0,4.85,64"/></g></g></svg>